<svg width="28" height="28" viewBox="0 0 28 28" fill="none" xmlns="http://www.w3.org/2000/svg">
<path d="M14.3041 5.53871C14.2226 5.46083 14.1143 5.41736 14.0016 5.41736C13.889 5.41736 13.7806 5.46083 13.6992 5.53871L3.63126 15.1566C3.5885 15.1975 3.55448 15.2467 3.53126 15.3011C3.50805 15.3555 3.49611 15.4141 3.49618 15.4732L3.49454 24.5C3.49454 24.9641 3.67891 25.4092 4.0071 25.7374C4.33529 26.0656 4.78041 26.25 5.24454 26.25H10.5C10.7321 26.25 10.9546 26.1578 11.1187 25.9937C11.2828 25.8296 11.375 25.607 11.375 25.375V17.9375C11.375 17.8214 11.4211 17.7102 11.5031 17.6281C11.5852 17.5461 11.6965 17.5 11.8125 17.5H16.1875C16.3035 17.5 16.4148 17.5461 16.4969 17.6281C16.5789 17.7102 16.625 17.8214 16.625 17.9375V25.375C16.625 25.607 16.7172 25.8296 16.8813 25.9937C17.0454 26.1578 17.2679 26.25 17.5 26.25H22.7533C23.2174 26.25 23.6625 26.0656 23.9907 25.7374C24.3189 25.4092 24.5033 24.9641 24.5033 24.5V15.4732C24.5034 15.4141 24.4914 15.3555 24.4682 15.3011C24.445 15.2467 24.411 15.1975 24.3682 15.1566L14.3041 5.53871Z" fill="#311602"/>
<path d="M27.1383 12.7686L23.0477 8.85514V2.91663C23.0477 2.68456 22.9555 2.462 22.7914 2.29791C22.6273 2.13381 22.4048 2.04163 22.1727 2.04163H19.5477C19.3156 2.04163 19.0931 2.13381 18.929 2.29791C18.7649 2.462 18.6727 2.68456 18.6727 2.91663V4.66663L15.5052 1.63803C15.2088 1.33834 14.768 1.16663 14.2917 1.16663C13.817 1.16663 13.3773 1.33834 13.0809 1.63858L1.44888 12.7675C1.10872 13.0956 1.06607 13.6354 1.3756 13.9908C1.45333 14.0806 1.5485 14.1535 1.65532 14.2053C1.76215 14.2571 1.87839 14.2866 1.99698 14.292C2.11557 14.2974 2.23402 14.2787 2.34512 14.2369C2.45623 14.1951 2.55766 14.1311 2.64325 14.0488L13.9909 3.20538C14.0723 3.12749 14.1807 3.08402 14.2933 3.08402C14.406 3.08402 14.5143 3.12749 14.5958 3.20538L25.9445 14.0488C26.1117 14.2091 26.3356 14.2966 26.5672 14.2921C26.7987 14.2876 27.0191 14.1915 27.1799 14.0248C27.5157 13.6769 27.4878 13.1027 27.1383 12.7686Z" fill="#311602"/>
</svg>
