<svg width="75" height="36" viewBox="0 0 75 36" fill="none" xmlns="http://www.w3.org/2000/svg">
<rect x="0.5" y="0.5" width="74" height="35" rx="3.5" stroke="#1B0D01"/>
<path d="M12.2402 22.8418L16.4297 10.7812H18.4707L13.207 25H11.752L12.2402 22.8418ZM8.32422 10.7812L12.4746 22.8418L12.9922 25H11.5371L6.2832 10.7812H8.32422ZM20.3848 10.7812H25.0918C26.1595 10.7812 27.0612 10.944 27.7969 11.2695C28.5391 11.5951 29.1022 12.0768 29.4863 12.7148C29.877 13.3464 30.0723 14.1243 30.0723 15.0488C30.0723 15.6999 29.9388 16.2956 29.6719 16.8359C29.4115 17.3698 29.0339 17.8255 28.5391 18.2031C28.0508 18.5742 27.4648 18.8509 26.7812 19.0332L26.2539 19.2383H21.8301L21.8105 17.7051H25.1504C25.8275 17.7051 26.3906 17.5879 26.8398 17.3535C27.2891 17.1126 27.6276 16.7904 27.8555 16.3867C28.0833 15.9831 28.1973 15.5371 28.1973 15.0488C28.1973 14.502 28.0898 14.0234 27.875 13.6133C27.6602 13.2031 27.3216 12.8874 26.8594 12.666C26.4036 12.4382 25.8145 12.3242 25.0918 12.3242H22.2695V25H20.3848V10.7812ZM28.6953 25L25.2383 18.5547L27.2012 18.5449L30.707 24.8828V25H28.6953ZM36.5566 25H33.5879L33.6074 23.4668H36.5566C37.5723 23.4668 38.4186 23.2552 39.0957 22.832C39.7728 22.4023 40.2806 21.8034 40.6191 21.0352C40.9642 20.2604 41.1367 19.3555 41.1367 18.3203V17.4512C41.1367 16.6374 41.0391 15.9147 40.8438 15.2832C40.6484 14.6452 40.362 14.1081 39.9844 13.6719C39.6068 13.2292 39.1445 12.8939 38.5977 12.666C38.0573 12.4382 37.4355 12.3242 36.7324 12.3242H33.5293V10.7812H36.7324C37.6634 10.7812 38.513 10.9375 39.2812 11.25C40.0495 11.556 40.7103 12.002 41.2637 12.5879C41.8236 13.1673 42.2533 13.8704 42.5527 14.6973C42.8522 15.5176 43.002 16.4421 43.002 17.4707V18.3203C43.002 19.349 42.8522 20.2767 42.5527 21.1035C42.2533 21.9238 41.8203 22.6237 41.2539 23.2031C40.694 23.7826 40.0169 24.2285 39.2227 24.541C38.4349 24.847 37.5462 25 36.5566 25ZM34.5938 10.7812V25H32.709V10.7812H34.5938ZM54.8672 23.4668V25H47.3379V23.4668H54.8672ZM47.7188 10.7812V25H45.834V10.7812H47.7188ZM53.8711 16.8945V18.4277H47.3379V16.8945H53.8711ZM54.7695 10.7812V12.3242H47.3379V10.7812H54.7695ZM61.791 22.8418L65.9805 10.7812H68.0215L62.7578 25H61.3027L61.791 22.8418ZM57.875 10.7812L62.0254 22.8418L62.543 25H61.0879L55.834 10.7812H57.875Z" fill="#1B0D01"/>
</svg>
