<svg width="129" height="36" viewBox="0 0 129 36" fill="none" xmlns="http://www.w3.org/2000/svg">
<rect x="0.5" y="0.5" width="128" height="35" rx="3.5" stroke="#1B0D01"/>
<path d="M11.498 25H8.5293L8.54883 23.4668H11.498C12.5137 23.4668 13.36 23.2552 14.0371 22.832C14.7142 22.4023 15.222 21.8034 15.5605 21.0352C15.9056 20.2604 16.0781 19.3555 16.0781 18.3203V17.4512C16.0781 16.6374 15.9805 15.9147 15.7852 15.2832C15.5898 14.6452 15.3034 14.1081 14.9258 13.6719C14.5482 13.2292 14.0859 12.8939 13.5391 12.666C12.9987 12.4382 12.377 12.3242 11.6738 12.3242H8.4707V10.7812H11.6738C12.6048 10.7812 13.4544 10.9375 14.2227 11.25C14.9909 11.556 15.6517 12.002 16.2051 12.5879C16.765 13.1673 17.1947 13.8704 17.4941 14.6973C17.7936 15.5176 17.9434 16.4421 17.9434 17.4707V18.3203C17.9434 19.349 17.7936 20.2767 17.4941 21.1035C17.1947 21.9238 16.7617 22.6237 16.1953 23.2031C15.6354 23.7826 14.9583 24.2285 14.1641 24.541C13.3763 24.847 12.4876 25 11.498 25ZM9.53516 10.7812V25H7.65039V10.7812H9.53516ZM25.8242 12.041L21.1172 25H19.1934L24.6133 10.7812H25.8535L25.8242 12.041ZM29.7695 25L25.0527 12.041L25.0234 10.7812H26.2637L31.7031 25H29.7695ZM29.5254 19.7363V21.2793H21.5371V19.7363H29.5254ZM41.1855 21.4062C41.1855 21.0742 41.1335 20.7812 41.0293 20.5273C40.9316 20.2669 40.7559 20.0326 40.502 19.8242C40.2546 19.6159 39.9095 19.4173 39.4668 19.2285C39.0306 19.0397 38.4772 18.8477 37.8066 18.6523C37.1035 18.444 36.4688 18.2129 35.9023 17.959C35.3359 17.6986 34.8509 17.4023 34.4473 17.0703C34.0436 16.7383 33.7344 16.3574 33.5195 15.9277C33.3047 15.498 33.1973 15.0065 33.1973 14.4531C33.1973 13.8997 33.3112 13.3887 33.5391 12.9199C33.7669 12.4512 34.0924 12.0443 34.5156 11.6992C34.9453 11.3477 35.4564 11.0742 36.0488 10.8789C36.6413 10.6836 37.3021 10.5859 38.0312 10.5859C39.099 10.5859 40.0039 10.791 40.7461 11.2012C41.4948 11.6048 42.0645 12.1354 42.4551 12.793C42.8457 13.444 43.041 14.1406 43.041 14.8828H41.166C41.166 14.349 41.0521 13.877 40.8242 13.4668C40.5964 13.0501 40.2513 12.7246 39.7891 12.4902C39.3268 12.2493 38.7409 12.1289 38.0312 12.1289C37.3607 12.1289 36.8073 12.2298 36.3711 12.4316C35.9349 12.6335 35.6094 12.9069 35.3945 13.252C35.1862 13.597 35.082 13.9909 35.082 14.4336C35.082 14.7331 35.1439 15.0065 35.2676 15.2539C35.3978 15.4948 35.5964 15.7194 35.8633 15.9277C36.1367 16.1361 36.4818 16.3281 36.8984 16.5039C37.3216 16.6797 37.8262 16.849 38.4121 17.0117C39.2194 17.2396 39.916 17.4935 40.502 17.7734C41.0879 18.0534 41.5697 18.3691 41.9473 18.7207C42.3314 19.0658 42.6146 19.4596 42.7969 19.9023C42.9857 20.3385 43.0801 20.8333 43.0801 21.3867C43.0801 21.9661 42.9629 22.4902 42.7285 22.959C42.4941 23.4277 42.1589 23.8281 41.7227 24.1602C41.2865 24.4922 40.7624 24.7493 40.1504 24.9316C39.5449 25.1074 38.8678 25.1953 38.1191 25.1953C37.4616 25.1953 36.8138 25.1042 36.1758 24.9219C35.5443 24.7396 34.9681 24.4661 34.4473 24.1016C33.9329 23.737 33.5195 23.2878 33.207 22.7539C32.901 22.2135 32.748 21.5885 32.748 20.8789H34.623C34.623 21.3672 34.7174 21.7871 34.9062 22.1387C35.0951 22.4837 35.3522 22.7702 35.6777 22.998C36.0098 23.2259 36.3841 23.3952 36.8008 23.5059C37.224 23.61 37.6634 23.6621 38.1191 23.6621C38.7767 23.6621 39.3333 23.571 39.7891 23.3887C40.2448 23.2064 40.5898 22.946 40.8242 22.6074C41.0651 22.2689 41.1855 21.8685 41.1855 21.4062ZM54.7695 16.8945V18.4277H47.0742V16.8945H54.7695ZM47.3672 10.7812V25H45.4824V10.7812H47.3672ZM56.4102 10.7812V25H54.5352V10.7812H56.4102ZM64.8281 18.3496H61.2246L61.2051 16.8359H64.4766C65.0169 16.8359 65.4889 16.7448 65.8926 16.5625C66.2962 16.3802 66.6087 16.1198 66.8301 15.7812C67.0579 15.4362 67.1719 15.026 67.1719 14.5508C67.1719 14.0299 67.071 13.6068 66.8691 13.2812C66.6738 12.9492 66.3711 12.7083 65.9609 12.5586C65.5573 12.4023 65.043 12.3242 64.418 12.3242H61.6445V25H59.7598V10.7812H64.418C65.1471 10.7812 65.7982 10.8561 66.3711 11.0059C66.944 11.1491 67.429 11.377 67.8262 11.6895C68.2298 11.9954 68.5358 12.3861 68.7441 12.8613C68.9525 13.3366 69.0566 13.9062 69.0566 14.5703C69.0566 15.1562 68.9069 15.6868 68.6074 16.1621C68.3079 16.6309 67.8913 17.015 67.3574 17.3145C66.8301 17.6139 66.2116 17.806 65.502 17.8906L64.8281 18.3496ZM64.7402 25H60.4824L61.5469 23.4668H64.7402C65.3392 23.4668 65.847 23.3626 66.2637 23.1543C66.6868 22.946 67.0091 22.653 67.2305 22.2754C67.4518 21.8913 67.5625 21.4388 67.5625 20.918C67.5625 20.3906 67.4681 19.9349 67.2793 19.5508C67.0905 19.1667 66.7943 18.8704 66.3906 18.6621C65.987 18.4538 65.4661 18.3496 64.8281 18.3496H62.1426L62.1621 16.8359H65.834L66.2344 17.3828C66.918 17.4414 67.4974 17.6367 67.9727 17.9688C68.4479 18.2943 68.8092 18.7109 69.0566 19.2188C69.3105 19.7266 69.4375 20.2865 69.4375 20.8984C69.4375 21.7839 69.2422 22.5326 68.8516 23.1445C68.4674 23.75 67.9238 24.2122 67.2207 24.5312C66.5176 24.8438 65.6908 25 64.7402 25ZM83.168 17.4414V18.3398C83.168 19.4076 83.0345 20.3646 82.7676 21.2109C82.5007 22.0573 82.1165 22.7767 81.6152 23.3691C81.1139 23.9616 80.5117 24.4141 79.8086 24.7266C79.112 25.0391 78.3307 25.1953 77.4648 25.1953C76.625 25.1953 75.8535 25.0391 75.1504 24.7266C74.4538 24.4141 73.8483 23.9616 73.334 23.3691C72.8262 22.7767 72.4323 22.0573 72.1523 21.2109C71.8724 20.3646 71.7324 19.4076 71.7324 18.3398V17.4414C71.7324 16.3737 71.8691 15.4199 72.1426 14.5801C72.4225 13.7337 72.8164 13.0143 73.3242 12.4219C73.832 11.8229 74.4342 11.3672 75.1309 11.0547C75.834 10.7422 76.6055 10.5859 77.4453 10.5859C78.3112 10.5859 79.0924 10.7422 79.7891 11.0547C80.4922 11.3672 81.0944 11.8229 81.5957 12.4219C82.1035 13.0143 82.4909 13.7337 82.7578 14.5801C83.0312 15.4199 83.168 16.3737 83.168 17.4414ZM81.3027 18.3398V17.4219C81.3027 16.5755 81.2148 15.8268 81.0391 15.1758C80.8698 14.5247 80.6191 13.9779 80.2871 13.5352C79.9551 13.0924 79.5482 12.7572 79.0664 12.5293C78.5911 12.3014 78.0508 12.1875 77.4453 12.1875C76.8594 12.1875 76.3288 12.3014 75.8535 12.5293C75.3848 12.7572 74.9811 13.0924 74.6426 13.5352C74.3105 13.9779 74.0534 14.5247 73.8711 15.1758C73.6888 15.8268 73.5977 16.5755 73.5977 17.4219V18.3398C73.5977 19.1927 73.6888 19.9479 73.8711 20.6055C74.0534 21.2565 74.3138 21.8066 74.6523 22.2559C74.9974 22.6986 75.4043 23.0339 75.873 23.2617C76.3483 23.4896 76.8789 23.6035 77.4648 23.6035C78.0768 23.6035 78.6204 23.4896 79.0957 23.2617C79.571 23.0339 79.9714 22.6986 80.2969 22.2559C80.6289 21.8066 80.8796 21.2565 81.0488 20.6055C81.2181 19.9479 81.3027 19.1927 81.3027 18.3398ZM91.0391 12.041L86.332 25H84.4082L89.8281 10.7812H91.0684L91.0391 12.041ZM94.9844 25L90.2676 12.041L90.2383 10.7812H91.4785L96.918 25H94.9844ZM94.7402 19.7363V21.2793H86.752V19.7363H94.7402ZM98.8223 10.7812H103.529C104.597 10.7812 105.499 10.944 106.234 11.2695C106.977 11.5951 107.54 12.0768 107.924 12.7148C108.314 13.3464 108.51 14.1243 108.51 15.0488C108.51 15.6999 108.376 16.2956 108.109 16.8359C107.849 17.3698 107.471 17.8255 106.977 18.2031C106.488 18.5742 105.902 18.8509 105.219 19.0332L104.691 19.2383H100.268L100.248 17.7051H103.588C104.265 17.7051 104.828 17.5879 105.277 17.3535C105.727 17.1126 106.065 16.7904 106.293 16.3867C106.521 15.9831 106.635 15.5371 106.635 15.0488C106.635 14.502 106.527 14.0234 106.312 13.6133C106.098 13.2031 105.759 12.8874 105.297 12.666C104.841 12.4382 104.252 12.3242 103.529 12.3242H100.707V25H98.8223V10.7812ZM107.133 25L103.676 18.5547L105.639 18.5449L109.145 24.8828V25H107.133ZM114.994 25H112.025L112.045 23.4668H114.994C116.01 23.4668 116.856 23.2552 117.533 22.832C118.21 22.4023 118.718 21.8034 119.057 21.0352C119.402 20.2604 119.574 19.3555 119.574 18.3203V17.4512C119.574 16.6374 119.477 15.9147 119.281 15.2832C119.086 14.6452 118.799 14.1081 118.422 13.6719C118.044 13.2292 117.582 12.8939 117.035 12.666C116.495 12.4382 115.873 12.3242 115.17 12.3242H111.967V10.7812H115.17C116.101 10.7812 116.951 10.9375 117.719 11.25C118.487 11.556 119.148 12.002 119.701 12.5879C120.261 13.1673 120.691 13.8704 120.99 14.6973C121.29 15.5176 121.439 16.4421 121.439 17.4707V18.3203C121.439 19.349 121.29 20.2767 120.99 21.1035C120.691 21.9238 120.258 22.6237 119.691 23.2031C119.132 23.7826 118.454 24.2285 117.66 24.541C116.872 24.847 115.984 25 114.994 25ZM113.031 10.7812V25H111.146V10.7812H113.031Z" fill="#1B0D01"/>
</svg>
