<svg width="38" height="36" viewBox="0 0 38 36" fill="none" xmlns="http://www.w3.org/2000/svg">
<rect x="0.5" y="0.5" width="37" height="35" rx="3.5" stroke="#1B0D01"/>
<path d="M12.2402 22.8418L16.4297 10.7812H18.4707L13.207 25H11.752L12.2402 22.8418ZM8.32422 10.7812L12.4746 22.8418L12.9922 25H11.5371L6.2832 10.7812H8.32422ZM20.3848 10.7812H25.0918C26.1595 10.7812 27.0612 10.944 27.7969 11.2695C28.5391 11.5951 29.1022 12.0768 29.4863 12.7148C29.877 13.3464 30.0723 14.1243 30.0723 15.0488C30.0723 15.6999 29.9388 16.2956 29.6719 16.8359C29.4115 17.3698 29.0339 17.8255 28.5391 18.2031C28.0508 18.5742 27.4648 18.8509 26.7812 19.0332L26.2539 19.2383H21.8301L21.8105 17.7051H25.1504C25.8275 17.7051 26.3906 17.5879 26.8398 17.3535C27.2891 17.1126 27.6276 16.7904 27.8555 16.3867C28.0833 15.9831 28.1973 15.5371 28.1973 15.0488C28.1973 14.502 28.0898 14.0234 27.875 13.6133C27.6602 13.2031 27.3216 12.8874 26.8594 12.666C26.4036 12.4382 25.8145 12.3242 25.0918 12.3242H22.2695V25H20.3848V10.7812ZM28.6953 25L25.2383 18.5547L27.2012 18.5449L30.707 24.8828V25H28.6953Z" fill="#1B0D01"/>
</svg>
