<svg width="129" height="128" viewBox="0 0 129 128" fill="none" xmlns="http://www.w3.org/2000/svg">
<g clip-path="url(#clip0_477_88)">
<path d="M64.5001 10.6667C93.9561 10.6667 117.833 34.5441 117.833 64.0001C117.833 93.4561 93.9561 117.333 64.5001 117.333C35.0441 117.333 11.1667 93.4561 11.1667 64.0001C11.1667 34.5441 35.0441 10.6667 64.5001 10.6667ZM83.3534 44.6987L56.9534 71.0987L45.6467 59.7867C45.1516 59.2912 44.5637 58.8981 43.9165 58.6298C43.2694 58.3615 42.5758 58.2232 41.8753 58.223C40.4605 58.2225 39.1035 58.784 38.1027 59.7841C37.102 60.7841 36.5395 62.1408 36.539 63.5555C36.5385 64.9703 37.1 66.3273 38.1001 67.3281L52.8094 82.0374C53.3542 82.5825 54.0011 83.0149 54.713 83.3099C55.425 83.6049 56.1881 83.7567 56.9587 83.7567C57.7294 83.7567 58.4925 83.6049 59.2045 83.3099C59.9164 83.0149 60.5633 82.5825 61.1081 82.0374L90.9001 52.2454C91.9008 51.2447 92.463 49.8874 92.463 48.4721C92.463 47.0568 91.9008 45.6995 90.9001 44.6987C89.8993 43.698 88.542 43.1358 87.1267 43.1358C85.7115 43.1358 84.3542 43.698 83.3534 44.6987Z" fill="#311602"/>
</g>
<defs>
<clipPath id="clip0_477_88">
<rect width="128" height="128" fill="white" transform="translate(0.5)"/>
</clipPath>
</defs>
</svg>
