<svg width="61" height="24" viewBox="0 0 61 24" fill="none" xmlns="http://www.w3.org/2000/svg">
<path d="M9.67413 21H5.67413C5.1437 21 4.63499 20.7893 4.25992 20.4142C3.88485 20.0391 3.67413 19.5304 3.67413 19V5C3.67413 4.46957 3.88485 3.96086 4.25992 3.58579C4.63499 3.21071 5.1437 3 5.67413 3H9.67413" stroke="#1B0D01" stroke-width="2" stroke-linecap="round" stroke-linejoin="round"/>
<path d="M16.6741 17L21.6741 12L16.6741 7" stroke="#1B0D01" stroke-width="2" stroke-linecap="round" stroke-linejoin="round"/>
<path d="M21.6741 12H9.67413" stroke="#1B0D01" stroke-width="2" stroke-linecap="round" stroke-linejoin="round"/>
<path d="M40.0569 14.125C40.0569 13.8594 40.0153 13.625 39.9319 13.4219C39.8538 13.2135 39.7132 13.026 39.5101 12.8594C39.3122 12.6927 39.0361 12.5339 38.6819 12.3828C38.333 12.2318 37.8903 12.0781 37.3538 11.9219C36.7913 11.7552 36.2835 11.5703 35.8304 11.3672C35.3773 11.1589 34.9892 10.9219 34.6663 10.6562C34.3434 10.3906 34.096 10.0859 33.9241 9.74219C33.7523 9.39844 33.6663 9.00521 33.6663 8.5625C33.6663 8.11979 33.7575 7.71094 33.9398 7.33594C34.122 6.96094 34.3825 6.63542 34.721 6.35938C35.0648 6.07812 35.4736 5.85938 35.9476 5.70312C36.4215 5.54688 36.9502 5.46875 37.5335 5.46875C38.3877 5.46875 39.1116 5.63281 39.7054 5.96094C40.3043 6.28385 40.7601 6.70833 41.0726 7.23438C41.3851 7.75521 41.5413 8.3125 41.5413 8.90625H40.0413C40.0413 8.47917 39.9502 8.10156 39.7679 7.77344C39.5856 7.4401 39.3095 7.17969 38.9398 6.99219C38.57 6.79948 38.1012 6.70312 37.5335 6.70312C36.997 6.70312 36.5543 6.78385 36.2054 6.94531C35.8564 7.10677 35.596 7.32552 35.4241 7.60156C35.2575 7.8776 35.1741 8.19271 35.1741 8.54688C35.1741 8.78646 35.2236 9.00521 35.3226 9.20312C35.4267 9.39583 35.5856 9.57552 35.7991 9.74219C36.0179 9.90885 36.2939 10.0625 36.6273 10.2031C36.9658 10.3438 37.3694 10.4792 37.8382 10.6094C38.484 10.7917 39.0413 10.9948 39.5101 11.2188C39.9788 11.4427 40.3642 11.6953 40.6663 11.9766C40.9736 12.2526 41.2002 12.5677 41.346 12.9219C41.497 13.2708 41.5726 13.6667 41.5726 14.1094C41.5726 14.5729 41.4788 14.9922 41.2913 15.3672C41.1038 15.7422 40.8356 16.0625 40.4866 16.3281C40.1377 16.5938 39.7184 16.7995 39.2288 16.9453C38.7444 17.0859 38.2028 17.1562 37.6038 17.1562C37.0778 17.1562 36.5595 17.0833 36.0491 16.9375C35.5439 16.7917 35.083 16.5729 34.6663 16.2812C34.2549 15.9896 33.9241 15.6302 33.6741 15.2031C33.4293 14.7708 33.3069 14.2708 33.3069 13.7031H34.8069C34.8069 14.0938 34.8825 14.4297 35.0335 14.7109C35.1845 14.987 35.3903 15.2161 35.6507 15.3984C35.9163 15.5807 36.2158 15.7161 36.5491 15.8047C36.8877 15.888 37.2392 15.9297 37.6038 15.9297C38.1299 15.9297 38.5752 15.8568 38.9398 15.7109C39.3043 15.5651 39.5804 15.3568 39.7679 15.0859C39.9606 14.8151 40.0569 14.4948 40.0569 14.125ZM48.2601 15.5547V11.2031C48.2601 10.8698 48.1924 10.5807 48.0569 10.3359C47.9267 10.0859 47.7288 9.89323 47.4632 9.75781C47.1976 9.6224 46.8694 9.55469 46.4788 9.55469C46.1142 9.55469 45.7939 9.61719 45.5179 9.74219C45.247 9.86719 45.0335 10.0312 44.8773 10.2344C44.7262 10.4375 44.6507 10.6562 44.6507 10.8906H43.2054C43.2054 10.5885 43.2835 10.2891 43.4398 9.99219C43.596 9.69531 43.82 9.42708 44.1116 9.1875C44.4085 8.94271 44.7627 8.75 45.1741 8.60938C45.5908 8.46354 46.0543 8.39062 46.5648 8.39062C47.1793 8.39062 47.721 8.49479 48.1898 8.70312C48.6637 8.91146 49.0335 9.22656 49.2991 9.64844C49.57 10.0651 49.7054 10.5885 49.7054 11.2188V15.1562C49.7054 15.4375 49.7288 15.737 49.7757 16.0547C49.8278 16.3724 49.9033 16.6458 50.0023 16.875V17H48.4944C48.4215 16.8333 48.3642 16.612 48.3226 16.3359C48.2809 16.0547 48.2601 15.7943 48.2601 15.5547ZM48.5101 11.875L48.5257 12.8906H47.0648C46.6533 12.8906 46.2861 12.9245 45.9632 12.9922C45.6403 13.0547 45.3694 13.151 45.1507 13.2812C44.9319 13.4115 44.7653 13.5755 44.6507 13.7734C44.5361 13.9661 44.4788 14.1927 44.4788 14.4531C44.4788 14.7188 44.5387 14.9609 44.6585 15.1797C44.7783 15.3984 44.958 15.5729 45.1976 15.7031C45.4424 15.8281 45.7418 15.8906 46.096 15.8906C46.5387 15.8906 46.9293 15.7969 47.2679 15.6094C47.6064 15.4219 47.8747 15.1927 48.0726 14.9219C48.2757 14.651 48.3851 14.388 48.4007 14.1328L49.0179 14.8281C48.9814 15.0469 48.8825 15.2891 48.721 15.5547C48.5595 15.8203 48.3434 16.0755 48.0726 16.3203C47.8069 16.5599 47.4892 16.7604 47.1194 16.9219C46.7549 17.0781 46.3434 17.1562 45.8851 17.1562C45.3122 17.1562 44.8095 17.0443 44.3773 16.8203C43.9502 16.5964 43.6168 16.2969 43.3773 15.9219C43.1429 15.5417 43.0257 15.1172 43.0257 14.6484C43.0257 14.1953 43.1142 13.7969 43.2913 13.4531C43.4684 13.1042 43.7236 12.8151 44.0569 12.5859C44.3903 12.3516 44.7913 12.1745 45.2601 12.0547C45.7288 11.9349 46.2523 11.875 46.8304 11.875H48.5101ZM53.5491 8.54688V17H52.096V8.54688H53.5491ZM51.9866 6.30469C51.9866 6.07031 52.0569 5.8724 52.1976 5.71094C52.3434 5.54948 52.5569 5.46875 52.8382 5.46875C53.1142 5.46875 53.3252 5.54948 53.471 5.71094C53.622 5.8724 53.6976 6.07031 53.6976 6.30469C53.6976 6.52865 53.622 6.72135 53.471 6.88281C53.3252 7.03906 53.1142 7.11719 52.8382 7.11719C52.5569 7.11719 52.3434 7.03906 52.1976 6.88281C52.0569 6.72135 51.9866 6.52865 51.9866 6.30469ZM57.3148 9.875V17H55.8694V8.54688H57.2757L57.3148 9.875ZM59.9554 8.5L59.9476 9.84375C59.8278 9.81771 59.7132 9.80208 59.6038 9.79688C59.4997 9.78646 59.3799 9.78125 59.2444 9.78125C58.9111 9.78125 58.6168 9.83333 58.3616 9.9375C58.1064 10.0417 57.8903 10.1875 57.7132 10.375C57.5361 10.5625 57.3955 10.7865 57.2913 11.0469C57.1924 11.3021 57.1273 11.5833 57.096 11.8906L56.6898 12.125C56.6898 11.6146 56.7392 11.1354 56.8382 10.6875C56.9424 10.2396 57.1012 9.84375 57.3148 9.5C57.5283 9.15104 57.7991 8.88021 58.1273 8.6875C58.4606 8.48958 58.8564 8.39062 59.3148 8.39062C59.4189 8.39062 59.5387 8.40365 59.6741 8.42969C59.8095 8.45052 59.9033 8.47396 59.9554 8.5Z" fill="#1B0D01"/>
</svg>
